<svg width="70" height="70" viewBox="0 0 70 70" fill="none" xmlns="http://www.w3.org/2000/svg">
<path d="M57.4703 30.9969C56.948 29.03 55.4089 27.481 53.4548 26.9552C49.9127 26 35.7097 26 35.7097 26C35.7097 26 21.5067 26 17.9646 26.9552C16.0105 27.481 14.4714 29.03 13.9491 30.9969C13 34.5619 13 42 13 42C13 42 13 49.4381 13.9491 53.0031C14.4714 54.97 16.0105 56.519 17.9646 57.0447C21.5067 58 35.7097 58 35.7097 58C35.7097 58 49.9127 58 53.4548 57.0447C55.4089 56.519 56.948 54.97 57.4703 53.0031C58.4194 49.4381 58.4194 42 58.4194 42C58.4194 42 58.4194 34.5619 57.4703 30.9969Z" fill="#E70000"/>
<path d="M31.0645 48.7531V35.2466L42.9354 42L31.0645 48.7531Z" fill="#FEFEFE"/>
</svg>
